<mxfile host="app.diagrams.net" modified="2023-07-29T01:48:56.841Z" agent="Mozilla/5.0 (Windows NT 10.0; Win64; x64) AppleWebKit/537.36 (KHTML, like Gecko) Chrome/115.0.0.0 Safari/537.36 Edg/115.0.1901.183" etag="0V335DwVxubmf4UKssLd" version="21.6.6" type="device">
  <diagram name="Page-1" id="YgEF8Rc6YDN5Ng1QnEPJ">
    <mxGraphModel dx="1055" dy="622" grid="1" gridSize="10" guides="1" tooltips="1" connect="1" arrows="1" fold="1" page="1" pageScale="1" pageWidth="850" pageHeight="1100" math="0" shadow="0">
      <root>
        <mxCell id="0" />
        <mxCell id="1" parent="0" />
        <mxCell id="dZJAuWM4ClLpMtlekzl2-5" style="edgeStyle=orthogonalEdgeStyle;rounded=0;orthogonalLoop=1;jettySize=auto;html=1;exitX=0.5;exitY=1;exitDx=0;exitDy=0;entryX=1;entryY=0.75;entryDx=0;entryDy=0;" parent="1" source="dZJAuWM4ClLpMtlekzl2-1" target="dZJAuWM4ClLpMtlekzl2-4" edge="1">
          <mxGeometry relative="1" as="geometry" />
        </mxCell>
        <mxCell id="dZJAuWM4ClLpMtlekzl2-9" value="consultar planes de entrenamiento, &lt;br style=&quot;font-size: 11px;&quot;&gt;gestionar sus datos" style="edgeLabel;html=1;align=center;verticalAlign=middle;resizable=0;points=[];fontSize=11;" parent="dZJAuWM4ClLpMtlekzl2-5" vertex="1" connectable="0">
          <mxGeometry x="-0.4615" y="1" relative="1" as="geometry">
            <mxPoint x="-76" y="-3" as="offset" />
          </mxGeometry>
        </mxCell>
        <mxCell id="qzlctMb44i1yB61l0kc5-2" style="edgeStyle=orthogonalEdgeStyle;rounded=0;orthogonalLoop=1;jettySize=auto;html=1;exitX=0.025;exitY=0.642;exitDx=0;exitDy=0;entryX=1;entryY=0.25;entryDx=0;entryDy=0;exitPerimeter=0;" parent="1" source="dZJAuWM4ClLpMtlekzl2-1" target="dZJAuWM4ClLpMtlekzl2-4" edge="1">
          <mxGeometry relative="1" as="geometry">
            <mxPoint x="240" y="92" as="targetPoint" />
            <Array as="points">
              <mxPoint x="520" y="65" />
            </Array>
          </mxGeometry>
        </mxCell>
        <mxCell id="qzlctMb44i1yB61l0kc5-3" value="entrenar con &lt;br&gt;inteligencia artificial" style="edgeLabel;html=1;align=center;verticalAlign=middle;resizable=0;points=[];" parent="qzlctMb44i1yB61l0kc5-2" vertex="1" connectable="0">
          <mxGeometry x="0.0713" relative="1" as="geometry">
            <mxPoint x="22" y="-3" as="offset" />
          </mxGeometry>
        </mxCell>
        <mxCell id="dZJAuWM4ClLpMtlekzl2-1" value="&lt;font style=&quot;font-size: 11px;&quot;&gt;Esgrimista&lt;/font&gt;&lt;br&gt;&lt;font style=&quot;font-size: 9px;&quot;&gt;[persona]&lt;/font&gt;" style="shape=actor;whiteSpace=wrap;html=1;fontSize=9;spacingTop=27;" parent="1" vertex="1">
          <mxGeometry x="520" y="20" width="60" height="70" as="geometry" />
        </mxCell>
        <mxCell id="dZJAuWM4ClLpMtlekzl2-7" style="edgeStyle=orthogonalEdgeStyle;rounded=0;orthogonalLoop=1;jettySize=auto;html=1;exitX=0.75;exitY=0.25;exitDx=0;exitDy=0;entryX=0.178;entryY=1.014;entryDx=0;entryDy=0;exitPerimeter=0;entryPerimeter=0;" parent="1" source="dZJAuWM4ClLpMtlekzl2-3" target="dZJAuWM4ClLpMtlekzl2-4" edge="1">
          <mxGeometry relative="1" as="geometry" />
        </mxCell>
        <mxCell id="dZJAuWM4ClLpMtlekzl2-8" value="visualizar resultados&lt;br style=&quot;border-color: var(--border-color); font-size: 11px;&quot;&gt;&lt;span style=&quot;font-size: 11px;&quot;&gt;de entrenamientos&lt;/span&gt;" style="edgeLabel;html=1;align=center;verticalAlign=middle;resizable=0;points=[];fontSize=11;" parent="dZJAuWM4ClLpMtlekzl2-7" vertex="1" connectable="0">
          <mxGeometry x="-0.2667" relative="1" as="geometry">
            <mxPoint x="14" y="-49" as="offset" />
          </mxGeometry>
        </mxCell>
        <mxCell id="dZJAuWM4ClLpMtlekzl2-12" style="edgeStyle=orthogonalEdgeStyle;rounded=0;orthogonalLoop=1;jettySize=auto;html=1;exitX=0.5;exitY=1;exitDx=0;exitDy=0;entryX=0.5;entryY=1;entryDx=0;entryDy=0;" parent="1" source="dZJAuWM4ClLpMtlekzl2-3" target="dZJAuWM4ClLpMtlekzl2-11" edge="1">
          <mxGeometry relative="1" as="geometry">
            <Array as="points">
              <mxPoint x="55" y="305" />
              <mxPoint x="425" y="305" />
            </Array>
          </mxGeometry>
        </mxCell>
        <mxCell id="dZJAuWM4ClLpMtlekzl2-13" value="&lt;span style=&quot;font-size: 10px;&quot;&gt;gestionar puntajes &lt;br&gt;durante combates&lt;br&gt;&lt;/span&gt;" style="edgeLabel;html=1;align=center;verticalAlign=middle;resizable=0;points=[];" parent="dZJAuWM4ClLpMtlekzl2-12" vertex="1" connectable="0">
          <mxGeometry x="-0.6048" y="1" relative="1" as="geometry">
            <mxPoint x="131" y="3" as="offset" />
          </mxGeometry>
        </mxCell>
        <mxCell id="qzlctMb44i1yB61l0kc5-4" style="edgeStyle=orthogonalEdgeStyle;rounded=0;orthogonalLoop=1;jettySize=auto;html=1;exitX=1;exitY=0.75;exitDx=0;exitDy=0;entryX=0.75;entryY=1;entryDx=0;entryDy=0;" parent="1" source="dZJAuWM4ClLpMtlekzl2-3" target="dZJAuWM4ClLpMtlekzl2-4" edge="1">
          <mxGeometry relative="1" as="geometry">
            <Array as="points">
              <mxPoint x="253" y="266" />
              <mxPoint x="253" y="224" />
            </Array>
            <mxPoint x="145" y="142" as="targetPoint" />
          </mxGeometry>
        </mxCell>
        <mxCell id="qzlctMb44i1yB61l0kc5-5" value="gestionar planes de &lt;br&gt;entrenamiento&amp;nbsp;&lt;span style=&quot;font-size: 10px;&quot;&gt;y datos&amp;nbsp;de &lt;br&gt;desempeño de&lt;/span&gt;&lt;br style=&quot;border-color: var(--border-color); font-size: 10px;&quot;&gt;&lt;span style=&quot;font-size: 10px;&quot;&gt;los alumnos&lt;/span&gt;" style="edgeLabel;html=1;align=center;verticalAlign=middle;resizable=0;points=[];" parent="qzlctMb44i1yB61l0kc5-4" vertex="1" connectable="0">
          <mxGeometry x="0.4431" y="-3" relative="1" as="geometry">
            <mxPoint x="4" y="4" as="offset" />
          </mxGeometry>
        </mxCell>
        <mxCell id="dZJAuWM4ClLpMtlekzl2-3" value="&lt;font style=&quot;font-size: 11px;&quot;&gt;Entrenador&lt;br&gt;&lt;/font&gt;&lt;font style=&quot;font-size: 9px;&quot;&gt;[persona]&lt;/font&gt;" style="shape=actor;whiteSpace=wrap;html=1;fontSize=9;spacingTop=27;" parent="1" vertex="1">
          <mxGeometry x="20" y="210" width="70" height="75" as="geometry" />
        </mxCell>
        <mxCell id="dZJAuWM4ClLpMtlekzl2-4" value="&lt;font style=&quot;font-size: 14px;&quot;&gt;Aplicación web&lt;/font&gt;&lt;br&gt;&lt;font style=&quot;&quot;&gt;&lt;font style=&quot;font-size: 9px;&quot;&gt;[Sistema de software]&lt;/font&gt;&lt;br&gt;&lt;br&gt;&lt;span style=&quot;font-size: 10px;&quot;&gt;App web para gestionar y consultar&amp;nbsp;planes de entrenamiento, datos de alumnos y su&amp;nbsp;desempeño&lt;/span&gt;&lt;br&gt;&lt;/font&gt;" style="whiteSpace=wrap;html=1;verticalAlign=top;" parent="1" vertex="1">
          <mxGeometry x="110" y="40" width="190" height="100" as="geometry" />
        </mxCell>
        <mxCell id="dZJAuWM4ClLpMtlekzl2-11" value="&lt;font style=&quot;font-size: 14px;&quot;&gt;Máquina de puntaje&lt;/font&gt;&lt;br&gt;&lt;font style=&quot;&quot;&gt;&lt;font style=&quot;font-size: 9px;&quot;&gt;[Hardware y software]&lt;/font&gt;&lt;br&gt;&lt;br&gt;&lt;span style=&quot;font-size: 10px;&quot;&gt;Máquina para llevar registro de los puntos realizados en combates&lt;/span&gt;&lt;br&gt;&lt;/font&gt;" style="whiteSpace=wrap;html=1;verticalAlign=top;" parent="1" vertex="1">
          <mxGeometry x="340" y="180" width="170" height="90" as="geometry" />
        </mxCell>
        <mxCell id="dYag6K67AkrwFl3mK62Y-2" style="edgeStyle=orthogonalEdgeStyle;rounded=0;orthogonalLoop=1;jettySize=auto;html=1;exitX=0;exitY=0.5;exitDx=0;exitDy=0;entryX=1;entryY=0.5;entryDx=0;entryDy=0;" edge="1" parent="1" source="dYag6K67AkrwFl3mK62Y-1" target="dZJAuWM4ClLpMtlekzl2-11">
          <mxGeometry relative="1" as="geometry" />
        </mxCell>
        <mxCell id="dYag6K67AkrwFl3mK62Y-1" value="&lt;font style=&quot;font-size: 14px;&quot;&gt;Máquina existente&lt;/font&gt;&lt;br&gt;&lt;font style=&quot;&quot;&gt;&lt;font style=&quot;font-size: 9px;&quot;&gt;[Hardware y software]&lt;/font&gt;&lt;br&gt;&lt;br&gt;&lt;span style=&quot;font-size: 10px;&quot;&gt;Máquina de esgrima &lt;br&gt;St. Geroge 11&lt;/span&gt;&lt;br&gt;&lt;/font&gt;" style="whiteSpace=wrap;html=1;verticalAlign=top;" vertex="1" parent="1">
          <mxGeometry x="570" y="180" width="150" height="90" as="geometry" />
        </mxCell>
      </root>
    </mxGraphModel>
  </diagram>
</mxfile>
